<svg id="Layer_1" data-name="Layer 1" xmlns="http://www.w3.org/2000/svg" viewBox="0 0 193.54 75.02"><defs><style>.cls-1,.cls-2{fill:#102b72;}.cls-2{stroke:#102b72;stroke-width:0.25px;}.cls-3{fill:#987c4d;}</style></defs><title>Artboard 1</title><polygon class="cls-1" points="28.36 35.38 30.9 28.41 36.55 27.73 28.36 35.38"/><path class="cls-2" d="M57.42,41.53c-.53-.26-.57-.4-.57-1.39,0-1.83.15-3.29.19-3.88,0-.4.11-.58.31-.58s.27.11.27.4a6.08,6.08,0,0,0,.12,1.35c.57,2.71,3.11,3.74,5.68,3.74,3.69,0,5.49-2.53,5.49-4.87,0-2.52-1.11-4-4.42-6.58l-1.73-1.36c-4.07-3.18-5-5.45-5-7.94,0-3.92,3.07-6.59,8-6.59a15.78,15.78,0,0,1,3.57.36,6.72,6.72,0,0,0,1.34.19c.31,0,.38.07.38.25s-.15,1.39-.15,3.88c0,.58-.08.84-.27.84s-.27-.18-.31-.47a6,6,0,0,0-.5-1.83c-.23-.4-1.26-1.94-4.8-1.94-2.65,0-4.72,1.57-4.72,4.24,0,2.09,1.07,3.33,4.69,6.14l1.07.81c4.53,3.4,5.61,5.67,5.61,8.59A7.46,7.46,0,0,1,68.37,41a10.46,10.46,0,0,1-5.8,1.54A12.21,12.21,0,0,1,57.42,41.53Z"/><path class="cls-2" d="M107.92,37.67c.15,1.32.42,3.37,2.07,3.88a8.77,8.77,0,0,0,2.5.33c.19,0,.31,0,.31.18s-.35.33-.81.33c-.84,0-5-.11-6.41-.22-.88-.07-1.07-.18-1.07-.36s.07-.22.27-.25.23-.66.15-1.32l-1.84-18.88H103l-9.41,19c-.81,1.61-.92,1.94-1.27,1.94s-.46-.36-1.19-1.68c-1-1.79-4.3-8.12-4.49-8.48-.35-.66-4.65-9.44-5.07-10.43h-.15l-1.54,17c0,.58,0,1.25,0,1.87a1.19,1.19,0,0,0,1,1.13,7.3,7.3,0,0,0,1.46.18c.15,0,.31.07.31.18,0,.26-.23.33-.69.33-1.42,0-3.26-.11-3.57-.11s-2.19.11-3.22.11c-.38,0-.66-.07-.66-.33,0-.1.19-.18.39-.18A5.19,5.19,0,0,0,76,41.77c1.27-.22,1.38-1.65,1.54-3l2.77-23.86c.08-.4.19-.66.42-.66s.39.15.58.55L93,37.78l11.3-23c.15-.33.31-.59.58-.59s.38.29.46,1Z"/><path class="cls-2" d="M114.75,25c0-5.71,0-6.74-.08-7.9S114.29,15.22,113,15a7.44,7.44,0,0,0-1.31-.11c-.15,0-.31-.07-.31-.22s.19-.29.62-.29c1.73,0,4.07.11,4.42.11s2.65-.11,3.8-.11c.42,0,.62.07.62.29s-.16.22-.31.22a5.89,5.89,0,0,0-1,.11c-1,.15-1.34.8-1.42,2.08s-.08,2.2-.08,7.9v5.12c0,5.27,1.23,7.54,2.88,9a7.75,7.75,0,0,0,5.8,2,8.24,8.24,0,0,0,6-2.63c1.77-2.09,2.23-5.19,2.23-9V25c0-5.71,0-6.74-.08-7.9s-.38-1.83-1.65-2.08a7.38,7.38,0,0,0-1.31-.11c-.15,0-.31-.07-.31-.22s.19-.29.61-.29c1.73,0,3.84.11,4.07.11s2.07-.11,3.23-.11c.42,0,.62.07.62.29s-.16.22-.31.22a3.49,3.49,0,0,0-1,.11c-1,.18-1.34.8-1.42,2.08s-.08,2.2-.08,7.9v3.91c0,4-.46,8.35-3.53,10.94a11.63,11.63,0,0,1-7.92,2.7c-1.3,0-5.18-.14-7.91-2.6-1.88-1.72-3.34-4.28-3.34-9.62Z"/><polygon class="cls-1" points="36.05 42.42 28.36 35.39 28.36 35.38 28.36 35.39 28.36 35.38 28.36 35.39 20.66 42.42 28.35 39.94 28.37 39.94 36.05 42.42"/><polygon class="cls-1" points="42.27 30 36.56 27.73 36.39 18.37 42.27 30"/><polygon class="cls-1" points="37.8 14.16 43.51 14.16 36.4 18.38 37.8 14.16"/><polygon class="cls-3" points="28.36 35.38 25.82 28.41 20.16 27.73 28.36 35.38"/><polygon class="cls-3" points="14.44 30 20.16 27.73 20.32 18.37 14.44 30"/><polygon class="cls-3" points="18.92 14.16 13.21 14.16 20.32 18.38 18.92 14.16"/><path class="cls-3" d="M48,0c-5.1,4.8-8.6,2.69-10.41,2.31a9.29,9.29,0,0,0-3.43-.61c-3.11,0-5.65,1.33-5.65,3a2.12,2.12,0,0,0,.91,1.6A5.75,5.75,0,0,1,31.94,5h0a12.52,12.52,0,0,1,5.18.22l.64.17h0a5.38,5.38,0,0,0,.72.18l.28.06C44.53,6.95,48,4,48,4Z"/><path class="cls-1" d="M27.85,50.64a14.6,14.6,0,0,1-4.79-.78c-2.85-1.38-3.39-5.6-3.76-9.1,0-.38-2.69-1.22-4-2.38-2.05-1.88-1.74-7.74-1.74-8.11s-3.32-2-3.32-5.64c0-1.53,0-10.11,0-10.11C8.14,11.85,6.76,11.81,5,12.35c-2.15.69-2.77,2.28-5,2.59,0,.49,0,26,0,26C0,48.87,1.45,54.3,9.51,60.36,17,66,22.79,65.82,27.84,75,27.93,75.16,27.87,50.64,27.85,50.64Z"/><path class="cls-1" d="M57.11,57.61a3.18,3.18,0,0,0,1.32.23,2.65,2.65,0,0,0,1.44-.37,1.79,1.79,0,0,0,.85-1.55c0-.85-.4-1.45-1.49-2.28L59,53.46c-.75-.56-1-.87-1-1.29s.41-.92,1.08-.92a1.16,1.16,0,0,1,1,.44,1.08,1.08,0,0,1,.24.59c0,.11,0,.16.09.16s.1-.07.1-.27c0-.7,0-1,0-1.07s0-.09-.13-.11a4.49,4.49,0,0,0-1.21-.15c-1.26,0-2.1.71-2.1,1.69,0,.72.35,1.35,1.34,2.11l.42.32c.75.57.89,1,.89,1.43a1.1,1.1,0,0,1-1.22,1,1.25,1.25,0,0,1-1.3-.9,1.88,1.88,0,0,1-.08-.46c0-.07,0-.15-.09-.15s-.1.1-.11.23,0,.68,0,1.17C56.94,57.51,57,57.55,57.11,57.61Z"/><path class="cls-1" d="M62.28,51.13a1.29,1.29,0,0,1,.33,0c.2,0,.29.2.31.5s0,.54,0,1.89v1.57c0,.87,0,1.57,0,1.94s-.08.41-.26.45a1.52,1.52,0,0,1-.33,0c-.11,0-.14,0-.14.07s.06.09.18.09l1.14,0c.25,0,.82,0,1.42,0,.1,0,.17,0,.17-.09s0-.07-.15-.07a3.88,3.88,0,0,1-.46,0c-.27,0-.34-.2-.36-.44s0-1.09,0-2V53.56c0-1.36,0-1.61,0-1.89s.09-.46.34-.51l.27,0c.09,0,.14,0,.14-.09s-.07-.07-.19-.07l-1.11,0-1.18,0c-.14,0-.22,0-.22.07S62.19,51.13,62.28,51.13Z"/><path class="cls-1" d="M73.65,51.05c0-.07-.09-.08-.21-.08-.44,0-.79,0-.89,0s-.63,0-1.1,0c-.14,0-.24,0-.24.08s0,.08.15.08a1.48,1.48,0,0,1,.48.05c.22.09.3.26.31.8l.09,4h0c-.15-.14-1.38-1.43-2-2-1.33-1.29-2.7-2.75-2.81-2.86s-.23-.28-.33-.28-.12.12-.12.3l-.08,5.28c0,.78,0,1-.28,1.11a1.6,1.6,0,0,1-.41,0c-.09,0-.15,0-.15.07s.08.09.2.09c.47,0,.9,0,1,0s.54,0,1.12,0c.13,0,.21,0,.21-.09s-.05-.07-.15-.07a1.43,1.43,0,0,1-.47-.06c-.18-.06-.3-.29-.32-1l-.1-3.75h0c.16.17,1.17,1.28,2.16,2.25s2.1,2.09,2.68,2.62c.1.1.21.2.31.2s.12-.08.12-.28l.1-5.63c0-.5.08-.69.34-.76a1,1,0,0,1,.27,0C73.59,51.13,73.65,51.11,73.65,51.05Z"/><path class="cls-1" d="M78.88,57.84a5.21,5.21,0,0,0,2.19-.4c.11-.06.12-.08.12-.32v-1c0-.45,0-.8,0-1.07s.1-.46.34-.51l.24,0c.06,0,.12,0,.12-.07s-.06-.09-.18-.09l-1.06,0-1.32,0c-.13,0-.19,0-.19.09s.05.07.14.07a1.9,1.9,0,0,1,.35,0c.3.06.38.2.39.51s0,.61,0,1.05V57a.31.31,0,0,1-.17.33,2,2,0,0,1-.77.1A3.12,3.12,0,0,1,75.94,54a2.41,2.41,0,0,1,2.63-2.74,2.93,2.93,0,0,1,2,.7,1.25,1.25,0,0,1,.31.74c0,.07,0,.12.09.12s.1,0,.1-.19a11.75,11.75,0,0,1,.06-1.46c0-.06,0-.1-.13-.11a6.18,6.18,0,0,1-.72-.1,11.08,11.08,0,0,0-1.6-.14,4.45,4.45,0,0,0-2.44.58,3.33,3.33,0,0,0-1.58,2.92C74.69,56.81,76.65,57.84,78.88,57.84Z"/><path class="cls-1" d="M89,57.56a2,2,0,0,1-.38,0c-.19,0-.45-.17-.8-1-.58-1.36-2-5-2.25-5.49-.09-.21-.15-.29-.23-.29s-.15.1-.25.36l-2.28,5.6c-.18.45-.35.75-.77.8l-.28,0c-.07,0-.11,0-.11.07s.05.09.17.09c.47,0,1,0,1.07,0l1,0c.1,0,.15,0,.15-.09s0-.07-.14-.07h-.14c-.28,0-.36-.12-.36-.28a1.7,1.7,0,0,1,.14-.55L84,55.46c0-.05,0-.07.08-.07h2a.09.09,0,0,1,.09.06L87,57.34a.15.15,0,0,1-.08.21c-.09,0-.13,0-.13.08s.11.06.27.07c.73,0,1.39,0,1.72,0s.42,0,.42-.09S89.11,57.56,89,57.56ZM86,54.94H84.3s0,0,0-.06l.83-2.19s0-.08.05-.08,0,0,0,.08l.82,2.2S86,54.94,86,54.94Z"/><path class="cls-1" d="M92.11,57.72c.1,0,.17,0,.17-.09s0-.07-.15-.07a3.9,3.9,0,0,1-.46,0c-.27,0-.33-.23-.35-.48s0-1.09,0-1.91V51.56c0-.1,0-.15.07-.17a1.29,1.29,0,0,1,.35,0,1.36,1.36,0,0,1,.91.35A1.7,1.7,0,0,1,93.14,53a1.41,1.41,0,0,1-1.22,1.47c-.19,0-.25,0-.25.1s.06.07.11.08H92a2.12,2.12,0,0,0,2.23-2.16,1.54,1.54,0,0,0-.45-1.06A2.24,2.24,0,0,0,92.06,51l-1.32,0-1.31,0c-.14,0-.2,0-.2.08s.05.08.15.08a1.92,1.92,0,0,1,.35,0c.3.06.37.21.39.51s0,.54,0,1.89v1.57c0,.82,0,1.53,0,1.9s-.08.46-.26.49a1.51,1.51,0,0,1-.33,0c-.11,0-.14,0-.14.07s.06.09.18.09l1.14,0C90.93,57.69,91.51,57.72,92.11,57.72Z"/><path class="cls-1" d="M98.9,50.85a3.47,3.47,0,0,0-3.75,3.5,3.43,3.43,0,0,0,3.66,3.5,3.56,3.56,0,0,0,3.76-3.66C102.57,52.14,101.16,50.85,98.9,50.85Zm.29,6.55c-1.74,0-2.79-1.47-2.79-3.33,0-2.22,1.19-2.79,2.23-2.79,1.49,0,2.66,1.24,2.66,3.24C101.3,57.09,99.83,57.4,99.19,57.4Z"/><path class="cls-1" d="M106.53,57.63s0-.07-.11-.07l-.45,0c-.27,0-.33-.23-.35-.49s0-1.08,0-1.91V55c0-.05,0-.07.07-.07l.79,0a.19.19,0,0,1,.16.06c.12.13.54.74.9,1.23a4.37,4.37,0,0,0,1.24,1.31,1.88,1.88,0,0,0,1,.17h.86l.12,0,.11,0,.63,0H112l.94,0c.39,0,.89,0,1.57,0,.34,0,.43,0,.49-.23a6.75,6.75,0,0,0,.12-1c0-.09,0-.16-.07-.16s-.08,0-.1.13c-.06.37-.17.55-.41.66a2.31,2.31,0,0,1-.85.11c-.93,0-1.07-.13-1.09-.75,0-.26,0-1.08,0-1.38v-.71c0-.05,0-.09.05-.09.22,0,1.12,0,1.29,0,.33,0,.46.17.51.35a2.37,2.37,0,0,1,0,.32.07.07,0,0,0,.08.08c.08,0,.08-.1.08-.17s0-.42,0-.6a6.51,6.51,0,0,1,.07-.65c0-.05,0-.07-.06-.07s-.08,0-.15.12a.64.64,0,0,1-.43.13c-.21,0-1.25,0-1.45,0s-.06,0-.06-.1V51.53c0-.06,0-.09.06-.09s1.13,0,1.29,0c.45.05.54.16.61.32a1,1,0,0,1,.05.32c0,.08,0,.13.08.13s.08-.05.09-.1,0-.5,0-.59a5.33,5.33,0,0,1,.07-.58s0-.08-.05-.08a.82.82,0,0,0-.15,0l-.39.05H112l-.57,0h-.74c-.14,0-.2,0-.2.08s.05.08.15.08a1.92,1.92,0,0,1,.35,0c.3.06.37.21.39.51s0,.54,0,1.89v1.57c0,.82,0,1.53,0,1.9s-.08.46-.26.49a1.51,1.51,0,0,1-.33,0l-.1,0s0,0,0,0l-.25,0a1.81,1.81,0,0,1-1-.61c-.54-.55-1.16-1.35-2-2.35a2.49,2.49,0,0,0,1.2-2,1.54,1.54,0,0,0-.62-1.22,2.94,2.94,0,0,0-1.67-.38L105,51c-.19,0-.76,0-1.24,0-.14,0-.2,0-.2.08s.05.08.15.08a1.92,1.92,0,0,1,.35,0c.3.06.37.21.39.51s0,.54,0,1.89v1.57c0,.82,0,1.53,0,1.9s-.08.46-.26.49a1.51,1.51,0,0,1-.33,0c-.11,0-.14,0-.14.07s.06.09.18.09l1.11,0c.14,0,.81,0,1.33,0C106.47,57.72,106.53,57.69,106.53,57.63Zm-1-6.08c0-.07,0-.11.08-.12a2,2,0,0,1,.48,0A1.44,1.44,0,0,1,107.53,53a1.56,1.56,0,0,1-.54,1.34.92.92,0,0,1-.64.15,2.42,2.42,0,0,1-.69-.09c-.06,0-.08-.06-.08-.16Z"/><path class="cls-1" d="M142.31,51c-.45,0-.79,0-.89,0s-.63,0-1.1,0c-.14,0-.24,0-.24.08s0,.08.14.08a1.47,1.47,0,0,1,.48.05c.22.09.3.26.31.8l.09,4h0c-.15-.14-1.38-1.43-2-2-1.32-1.29-2.7-2.75-2.81-2.86s-.24-.28-.34-.28-.12.12-.12.3l-.08,5.28c0,.78,0,1-.28,1.11a1.57,1.57,0,0,1-.41,0l-.11,0-.09,0a2,2,0,0,1-.38,0c-.19,0-.45-.17-.8-1-.58-1.36-2-5-2.25-5.49-.09-.21-.14-.29-.23-.29s-.14.1-.25.36l-2.28,5.6c-.18.45-.35.75-.77.8h-.13a1.77,1.77,0,0,1-.47-.08c-.27-.08-.36-.34-.44-.9L126,51.05c0-.19-.08-.28-.16-.28s-.14.07-.2.21l-2.47,5.1-2.48-5c-.12-.23-.17-.28-.25-.28s-.13.08-.15.23l-.9,5.82c0,.3-.12.65-.37.7a1.15,1.15,0,0,1-.27,0c-.09,0-.15,0-.15.06s.07.1.16.1l.9,0c.16,0,.57,0,1,0,.14,0,.22,0,.22-.1s-.06-.06-.14-.06a1.72,1.72,0,0,1-.38,0c-.15,0-.27-.11-.27-.29a3.54,3.54,0,0,1,0-.42l.47-3.55h0c.32.67.86,1.79.94,2s.82,1.62,1,2,.23.45.32.45.13-.08.34-.5l2-4.05h0l.55,3.93c0,.25,0,.37,0,.38s-.1.05-.1.1.05.08.26.1,1.39,0,1.75.05h.1l1,0,1,0c.1,0,.15,0,.15-.09s0-.07-.14-.07h-.14c-.28,0-.36-.12-.36-.28a1.72,1.72,0,0,1,.14-.55l.49-1.28c0-.05,0-.07.08-.07h2a.09.09,0,0,1,.09.06l.73,1.89a.15.15,0,0,1-.08.21c-.09,0-.13,0-.13.08s.11.06.27.07c.73,0,1.39,0,1.71,0a.87.87,0,0,0,.39,0,.24.24,0,0,0,.16,0c.47,0,.9,0,1,0s.54,0,1.13,0c.13,0,.21,0,.21-.09s-.05-.07-.15-.07a1.44,1.44,0,0,1-.47-.06c-.18-.06-.3-.29-.32-1l-.1-3.75h0c.16.17,1.17,1.28,2.16,2.25s2.1,2.09,2.68,2.62c.1.1.21.2.31.2s.12-.08.12-.28l.1-5.63c0-.5.08-.69.34-.76a1,1,0,0,1,.27,0c.11,0,.16,0,.16-.08S142.42,51,142.31,51Zm-10.54,4h-1.67s0,0,0-.06l.83-2.19s0-.08.05-.08,0,0,0,.08l.82,2.2S131.81,54.94,131.76,54.94Z"/><path class="cls-1" d="M149.86,57.56a2,2,0,0,1-.38,0c-.19,0-.45-.17-.8-1-.58-1.36-2-5-2.25-5.49-.09-.21-.14-.29-.23-.29s-.15.1-.25.36l-2.28,5.6c-.18.45-.35.75-.77.8l-.28,0c-.07,0-.11,0-.11.07s.05.09.17.09c.47,0,1,0,1.07,0l1,0c.1,0,.15,0,.15-.09s0-.07-.14-.07h-.14c-.28,0-.36-.12-.36-.28a1.72,1.72,0,0,1,.14-.55l.49-1.28c0-.05,0-.07.08-.07h2a.09.09,0,0,1,.09.06l.73,1.89a.15.15,0,0,1-.08.21c-.09,0-.13,0-.13.08s.11.06.27.07c.73,0,1.39,0,1.72,0s.42,0,.42-.09S149.94,57.56,149.86,57.56Zm-3.07-2.61h-1.67s0,0,0-.06l.83-2.19s0-.08.05-.08,0,0,0,.08l.82,2.2S146.84,54.94,146.8,54.94Z"/><path class="cls-1" d="M157,54.37l-1.06,0-1.32,0c-.13,0-.19,0-.19.09s.05.07.14.07a1.89,1.89,0,0,1,.35,0c.3.06.38.2.39.51s0,.61,0,1.05V57a.32.32,0,0,1-.17.33,2,2,0,0,1-.77.1A3.12,3.12,0,0,1,151.24,54a2.41,2.41,0,0,1,2.63-2.74,2.93,2.93,0,0,1,2,.7,1.24,1.24,0,0,1,.31.74c0,.07,0,.12.09.12s.1,0,.1-.19a11.75,11.75,0,0,1,.06-1.46c0-.06,0-.1-.13-.11a6.12,6.12,0,0,1-.72-.1,11.14,11.14,0,0,0-1.61-.14,4.46,4.46,0,0,0-2.44.58A3.32,3.32,0,0,0,150,54.35c0,2.46,2,3.5,4.19,3.5a5.21,5.21,0,0,0,2.19-.4c.11-.06.12-.08.12-.32v-1c0-.45,0-.8,0-1.07s.1-.46.34-.51l.25,0c.06,0,.12,0,.12-.07S157.14,54.37,157,54.37Z"/><path class="cls-1" d="M162.66,56.36c-.06,0-.08,0-.1.13-.06.37-.17.55-.41.66a2.32,2.32,0,0,1-.85.11c-.93,0-1.07-.13-1.09-.75,0-.26,0-1.08,0-1.38v-.71c0-.05,0-.09.05-.09.22,0,1.12,0,1.29,0,.34,0,.46.17.51.35a2.07,2.07,0,0,1,0,.32s0,.08.08.08.08-.1.08-.17,0-.42,0-.6a6.36,6.36,0,0,1,.07-.65c0-.05,0-.07-.06-.07s-.08,0-.15.12a.64.64,0,0,1-.43.13c-.21,0-1.25,0-1.45,0s-.06,0-.06-.1V51.53c0-.06,0-.09.06-.09s1.14,0,1.29,0c.45.05.54.16.61.32a1,1,0,0,1,.05.32c0,.08,0,.13.08.13s.08-.05.09-.1,0-.5,0-.59a5.69,5.69,0,0,1,.07-.58s0-.08-.05-.08a.79.79,0,0,0-.15,0l-.39.05h-2.27l-.57,0h-.73c-.14,0-.2,0-.2.08s.05.08.15.08a1.92,1.92,0,0,1,.35,0c.3.06.37.21.39.51s0,.54,0,1.89v1.57c0,.82,0,1.53,0,1.9s-.08.46-.26.49a1.51,1.51,0,0,1-.33,0c-.11,0-.14,0-.14.07s.06.09.18.09l.63,0h.52l.94,0c.39,0,.89,0,1.57,0,.34,0,.43,0,.49-.23a6.9,6.9,0,0,0,.12-1C162.73,56.43,162.73,56.36,162.66,56.36Z"/><path class="cls-1" d="M172.72,57.56a1.83,1.83,0,0,1-.56-.09c-.27-.08-.36-.34-.44-.9l-.83-5.51c0-.19-.08-.28-.16-.28s-.14.07-.2.21l-2.47,5.1-2.48-5c-.12-.23-.17-.28-.24-.28s-.13.08-.15.23l-.9,5.82c0,.3-.12.65-.37.7a1.16,1.16,0,0,1-.27,0c-.09,0-.14,0-.14.06s.07.1.16.1l.9,0c.16,0,.57,0,1,0,.14,0,.22,0,.22-.1s-.06-.06-.14-.06a1.73,1.73,0,0,1-.38,0c-.15,0-.27-.11-.27-.29a3.31,3.31,0,0,1,0-.42l.47-3.55h0c.32.67.86,1.79.94,2s.83,1.62,1,2,.24.45.32.45.13-.08.34-.5l2-4.05h0l.54,3.93c0,.25,0,.37,0,.38s-.1.05-.1.1.05.08.26.1c.36,0,1.62.05,1.84.05s.24,0,.24-.1S172.8,57.56,172.72,57.56Z"/><path class="cls-1" d="M177.94,56.36c-.06,0-.08,0-.1.13-.06.37-.17.55-.41.66a2.32,2.32,0,0,1-.85.11c-.92,0-1.07-.13-1.09-.75,0-.26,0-1.08,0-1.38v-.71c0-.05,0-.09.05-.09.22,0,1.12,0,1.29,0,.34,0,.46.17.51.35a2.56,2.56,0,0,1,0,.32.07.07,0,0,0,.08.08c.08,0,.08-.1.08-.17s0-.42,0-.6c0-.46.07-.6.07-.65s0-.07-.06-.07-.08,0-.14.12a.65.65,0,0,1-.44.13c-.21,0-1.25,0-1.45,0s-.06,0-.06-.1V51.53c0-.06,0-.09.06-.09s1.13,0,1.29,0c.45.05.55.16.61.32a.93.93,0,0,1,.05.32c0,.08,0,.13.08.13s.08-.05.09-.1,0-.5,0-.59a5.71,5.71,0,0,1,.07-.58s0-.08-.05-.08a.81.81,0,0,0-.14,0l-.39.05h-2.27l-.57,0h-.73c-.14,0-.2,0-.2.08s.05.08.15.08a1.89,1.89,0,0,1,.35,0c.3.06.37.21.39.51s0,.54,0,1.89v1.57c0,.82,0,1.53,0,1.9s-.08.46-.26.49a1.51,1.51,0,0,1-.33,0c-.11,0-.15,0-.15.07s.06.09.18.09l.63,0h.52l.94,0c.39,0,.89,0,1.57,0,.34,0,.43,0,.49-.23a6.89,6.89,0,0,0,.12-1C178,56.43,178,56.36,177.94,56.36Z"/><path class="cls-1" d="M186.49,51c-.45,0-.79,0-.89,0s-.63,0-1.1,0c-.14,0-.24,0-.24.08s0,.08.14.08a1.47,1.47,0,0,1,.48.05c.22.09.3.26.31.8l.09,4h0c-.16-.14-1.38-1.43-2-2-1.32-1.29-2.7-2.75-2.81-2.86s-.24-.28-.34-.28-.12.12-.12.3l-.08,5.28c0,.78,0,1-.28,1.11a1.57,1.57,0,0,1-.41,0c-.09,0-.14,0-.14.07s.08.09.2.09c.47,0,.9,0,1,0s.53,0,1.12,0c.13,0,.21,0,.21-.09s-.05-.07-.15-.07a1.44,1.44,0,0,1-.47-.06c-.18-.06-.3-.29-.32-1l-.1-3.75h0c.16.17,1.17,1.28,2.16,2.25s2.1,2.09,2.68,2.62c.1.1.21.2.31.2s.12-.08.12-.28l.1-5.63c0-.5.08-.69.34-.76a1,1,0,0,1,.27,0c.11,0,.16,0,.16-.08S186.61,51,186.49,51Z"/><path class="cls-1" d="M193.47,50.91l-.24,0a4.5,4.5,0,0,1-.63,0H189c-.3,0-.64,0-.91,0a2,2,0,0,1-.39-.11c-.05,0-.08.05-.11.17s-.19.88-.19,1,0,.14.08.14.08,0,.1-.11a1,1,0,0,1,.15-.31c.14-.2.35-.24.88-.26l1.35,0v3.66c0,.82,0,1.53,0,1.9s-.08.46-.26.49a1.49,1.49,0,0,1-.33,0c-.11,0-.14,0-.14.07s.06.09.18.09l1.14,0c.25,0,.82,0,1.42,0,.1,0,.17,0,.17-.09s0-.07-.15-.07a3.9,3.9,0,0,1-.46,0c-.27,0-.33-.23-.35-.48s0-1.09,0-1.91V51.47l1.14,0c.81,0,1.05.27,1.07.5v.1c0,.13,0,.18.1.18s.07-.05.08-.14,0-.85,0-1S193.53,50.91,193.47,50.91Z"/><path class="cls-1" d="M63.38,62.77l-1,0s-.58,0-1,0c-.13,0-.19,0-.19.08s.05.08.15.08a1.78,1.78,0,0,1,.33,0c.3.06.37.2.39.51s0,.54,0,1.89v1.12a3,3,0,0,1-.53,2.21,1.79,1.79,0,0,1-1.25.48,1.7,1.7,0,0,1-1.13-.37c-.44-.36-.71-.9-.71-2.2V65.36c0-1.36,0-1.61,0-1.89s.09-.46.34-.51l.26,0c.09,0,.14,0,.14-.08s-.06-.08-.2-.08l-1.12,0-1.33,0c-.14,0-.2,0-.2.08s.05.08.15.08a1.9,1.9,0,0,1,.35,0c.3.06.37.2.39.51s0,.54,0,1.89v1.3A2.91,2.91,0,0,0,58,69a3,3,0,0,0,2,.62A2.74,2.74,0,0,0,61.93,69a3.34,3.34,0,0,0,.86-2.69v-1c0-1.36,0-1.61,0-1.89s.09-.46.34-.51l.26,0c.11,0,.16,0,.16-.08S63.51,62.77,63.38,62.77Z"/><path class="cls-1" d="M71.74,62.77c-.44,0-.79,0-.89,0s-.63,0-1.1,0c-.14,0-.23,0-.23.08s0,.08.14.08a1.51,1.51,0,0,1,.48.05c.22.09.3.26.31.8l.09,4h0c-.15-.14-1.38-1.43-2-2-1.33-1.29-2.7-2.75-2.81-2.86s-.24-.28-.34-.28-.12.13-.12.3l-.08,5.28c0,.78,0,1-.28,1.11a1.64,1.64,0,0,1-.41,0c-.09,0-.15,0-.15.07s.08.09.2.09c.47,0,.9,0,1,0s.54,0,1.13,0c.13,0,.21,0,.21-.09s-.05-.07-.15-.07a1.46,1.46,0,0,1-.47-.06c-.18-.06-.3-.3-.32-1l-.1-3.75h0C66,64.72,67,65.84,68,66.8s2.1,2.09,2.68,2.62c.1.1.21.2.31.2s.12-.08.12-.28l.1-5.63c0-.5.08-.69.34-.76a1,1,0,0,1,.27,0c.11,0,.16,0,.16-.08S71.86,62.77,71.74,62.77Z"/><path class="cls-1" d="M76,69.36a3.91,3.91,0,0,1-.46,0c-.27,0-.33-.2-.36-.44s0-1.09,0-2V65.36c0-1.36,0-1.61,0-1.89s.09-.46.34-.51l.27,0c.09,0,.14,0,.14-.09s-.07-.07-.19-.07l-1.11,0-1.18,0c-.14,0-.22,0-.22.07s.05.09.15.09a1.29,1.29,0,0,1,.33,0c.2,0,.29.2.31.5s0,.54,0,1.89v1.57c0,.87,0,1.57,0,1.95s-.08.41-.26.45a1.49,1.49,0,0,1-.33,0c-.11,0-.14,0-.14.07s.06.09.18.09l1.14,0c.24,0,.82,0,1.42,0,.1,0,.17,0,.17-.09S76.11,69.36,76,69.36Z"/><path class="cls-1" d="M83.58,62.77l-.85,0c-.12,0-.5,0-1,0-.17,0-.25,0-.25.09s.07.07.15.07A1.23,1.23,0,0,1,82,63a.17.17,0,0,1,.12.17,1.07,1.07,0,0,1-.08.33c-.22.59-1.4,3.46-1.79,4.44h0l-1.56-4.05a2.64,2.64,0,0,1-.21-.69.21.21,0,0,1,.09-.19.66.66,0,0,1,.35-.06c.08,0,.14,0,.14-.08s-.1-.08-.21-.08c-.45,0-.89,0-1.12,0l-1.32,0c-.14,0-.24,0-.24.08s0,.08.11.08a1.43,1.43,0,0,1,.35,0c.33.09.48.19.69.68l2.29,5.45c.17.42.23.54.34.54s.18-.14.42-.66l1.21-2.72c.49-1.1.73-1.58,1.09-2.42.24-.57.38-.72.5-.8a.8.8,0,0,1,.45-.11c.09,0,.14,0,.14-.08S83.69,62.77,83.58,62.77Z"/><path class="cls-1" d="M88.38,68.16c-.06,0-.08,0-.1.13-.06.37-.17.55-.41.66a2.32,2.32,0,0,1-.85.11c-.92,0-1.07-.13-1.09-.75,0-.26,0-1.08,0-1.38v-.71c0-.05,0-.09.05-.09.22,0,1.12,0,1.29,0,.34,0,.46.17.51.35a2.57,2.57,0,0,1,0,.32.07.07,0,0,0,.08.08c.08,0,.08-.1.08-.17s0-.42,0-.6c0-.46.07-.6.07-.65s0-.07-.06-.07-.08,0-.14.12-.22.12-.44.13-1.25,0-1.45,0-.06,0-.06-.1V63.33c0-.06,0-.09.06-.09s1.13,0,1.29,0c.46.05.55.16.61.32a1,1,0,0,1,.05.32c0,.08,0,.12.08.12s.08-.05.09-.1,0-.5,0-.59a5.63,5.63,0,0,1,.07-.58s0-.08-.05-.08a.91.91,0,0,0-.14,0l-.39.05H85.37l-.57,0h-.73c-.14,0-.2,0-.2.08s.05.08.15.08a1.9,1.9,0,0,1,.35,0c.3.06.37.2.39.51s0,.54,0,1.89v1.57c0,.82,0,1.53,0,1.9s-.08.46-.26.49a1.51,1.51,0,0,1-.33,0c-.11,0-.15,0-.15.07s.06.09.18.09l.63,0h.52l.94,0c.39,0,.89,0,1.57,0,.34,0,.43,0,.49-.23a6.8,6.8,0,0,0,.12-1C88.45,68.23,88.45,68.16,88.38,68.16Z"/><path class="cls-1" d="M99,65.45l-.25-.19c-.75-.56-1-.87-1-1.28s.41-.92,1.08-.92a1.16,1.16,0,0,1,1,.44,1.07,1.07,0,0,1,.24.59c0,.11,0,.16.09.16s.1-.07.1-.27c0-.7,0-1,0-1.07s0-.09-.13-.11a4.44,4.44,0,0,0-1.21-.15c-1.26,0-2.1.71-2.1,1.69,0,.72.34,1.35,1.34,2.12l.42.32c.75.57.89,1,.89,1.43a1.1,1.1,0,0,1-1.21,1,1.25,1.25,0,0,1-1.3-.9,1.87,1.87,0,0,1-.08-.46c0-.07,0-.15-.09-.15s-.1.1-.11.23,0,.68,0,1.17c0,.15,0,.21.09.26h0l-.25,0a1.83,1.83,0,0,1-1-.61c-.54-.55-1.16-1.35-2-2.35a2.49,2.49,0,0,0,1.2-2A1.54,1.54,0,0,0,94,63.15a2.94,2.94,0,0,0-1.67-.38l-1.28,0c-.19,0-.76,0-1.24,0-.14,0-.2,0-.2.08s.05.08.15.08a1.9,1.9,0,0,1,.35,0c.3.06.37.2.39.51s0,.54,0,1.89v1.57c0,.82,0,1.53,0,1.9s-.08.46-.26.49a1.53,1.53,0,0,1-.33,0c-.11,0-.14,0-.14.07s.06.09.18.09l1.11,0c.14,0,.81,0,1.33,0,.12,0,.18,0,.18-.09s0-.07-.11-.07l-.44,0c-.27,0-.33-.23-.35-.49s0-1.08,0-1.91v-.13c0-.05,0-.07.07-.07l.79,0a.19.19,0,0,1,.16.06c.12.13.54.74.9,1.23a4.34,4.34,0,0,0,1.24,1.31,1.89,1.89,0,0,0,1,.17h.86c.11,0,.17,0,.17-.09a.06.06,0,0,0,0,0l0,0a3.18,3.18,0,0,0,1.33.23,2.66,2.66,0,0,0,1.44-.37,1.79,1.79,0,0,0,.85-1.55C100.44,66.87,100,66.28,99,65.45ZM93,66.16a.92.92,0,0,1-.64.15,2.41,2.41,0,0,1-.69-.09c-.06,0-.08-.06-.08-.16V63.35c0-.07,0-.11.08-.13a2.06,2.06,0,0,1,.48,0,1.44,1.44,0,0,1,1.39,1.63A1.56,1.56,0,0,1,93,66.16Z"/><path class="cls-1" d="M104.64,69.36a3.88,3.88,0,0,1-.46,0c-.27,0-.34-.2-.36-.44s0-1.09,0-2V65.36c0-1.36,0-1.61,0-1.89s.09-.46.33-.51l.27,0c.09,0,.15,0,.15-.09s-.07-.07-.19-.07l-1.11,0-1.18,0c-.15,0-.22,0-.22.07s.05.09.14.09a1.29,1.29,0,0,1,.33,0c.2,0,.29.2.31.5s0,.54,0,1.89v1.57c0,.87,0,1.57,0,1.95s-.08.41-.26.45a1.49,1.49,0,0,1-.33,0c-.11,0-.15,0-.15.07s.06.09.18.09l1.14,0c.25,0,.82,0,1.42,0,.1,0,.17,0,.17-.09S104.73,69.36,104.64,69.36Z"/><path class="cls-1" d="M118.25,62.77l-1,0-.85,0c-.11,0-.15,0-.15.08s.08.07.16.09a.21.21,0,0,1,.19.22,1.16,1.16,0,0,1-.13.46c-.13.28-1.27,2.24-1.36,2.45-.15-.25-1.42-2.4-1.54-2.67a.8.8,0,0,1-.11-.3.16.16,0,0,1,.13-.16c.14,0,.2,0,.2-.1s0-.08-.14-.08c-.41,0-.78,0-1,0l-1.14,0h0s0-.06-.06-.06l-.24,0a4.42,4.42,0,0,1-.63,0H107c-.3,0-.64,0-.91,0a2.13,2.13,0,0,1-.39-.11c-.05,0-.08.05-.11.17s-.19.88-.19,1,0,.14.08.14.08,0,.1-.11a1.09,1.09,0,0,1,.15-.31c.14-.2.35-.24.88-.26l1.35,0v3.66c0,.82,0,1.53,0,1.9s-.08.46-.26.49a1.51,1.51,0,0,1-.33,0c-.11,0-.15,0-.15.07s.06.09.18.09l1.14,0c.25,0,.83,0,1.42,0,.1,0,.17,0,.17-.09s0-.07-.14-.07a3.88,3.88,0,0,1-.46,0c-.27,0-.33-.23-.35-.48s0-1.09,0-1.91V63.27l1.14,0c.81,0,1.05.27,1.07.5v.1c0,.13,0,.18.1.18s.07-.05.08-.14,0-.78,0-1a1,1,0,0,1,.34.11,2.19,2.19,0,0,1,.63.65c.32.46,1.53,2.43,1.6,2.57a1.87,1.87,0,0,1,.21.94v.73c0,.14,0,.52,0,.89s-.1.46-.28.49a1.49,1.49,0,0,1-.32,0c-.1,0-.15,0-.15.07s.07.09.2.09l1.13,0c.24,0,.82,0,1.39,0,.12,0,.19,0,.19-.09s0-.07-.14-.07a3.87,3.87,0,0,1-.45,0c-.27,0-.35-.23-.37-.49s0-.75,0-.89v-.73a2.1,2.1,0,0,1,.14-.89,28.06,28.06,0,0,1,1.73-2.84,1.35,1.35,0,0,1,.49-.44,1,1,0,0,1,.4-.11c.1,0,.17,0,.17-.09S118.35,62.77,118.25,62.77Z"/></svg>